<?xml version="1.0" standalone="no"?>
<!DOCTYPE svg PUBLIC "-//W3C//DTD SVG 20010904//EN"
 "http://www.w3.org/TR/2001/REC-SVG-20010904/DTD/svg10.dtd">
<svg version="1.0" xmlns="http://www.w3.org/2000/svg"
 width="796.000000pt" height="666.000000pt" viewBox="0 0 796.000000 666.000000"
 preserveAspectRatio="xMidYMid meet">

<g transform="translate(0.000000,666.000000) scale(0.100000,-0.100000)"
fill="#f9bc23" stroke="none">
<path d="M2910 6244 c-74 -19 -256 -108 -412 -201 -504 -300 -931 -772 -1194
-1318 -232 -482 -325 -952 -302 -1523 29 -717 302 -1379 801 -1940 259 -291
603 -547 968 -721 124 -60 201 -81 289 -81 341 0 597 321 514 644 -44 169
-143 281 -328 370 -225 108 -391 223 -565 391 -326 316 -531 700 -613 1149
-29 159 -32 523 -5 681 77 447 275 825 606 1156 166 165 321 276 560 399 108
55 155 86 199 129 163 161 199 408 89 615 -61 115 -191 218 -321 252 -66 18
-216 17 -286 -2z"/>
<path d="M5050 6246 c-171 -46 -320 -197 -366 -370 -19 -69 -18 -200 2 -267
25 -86 75 -169 136 -230 45 -44 91 -74 207 -134 337 -172 572 -368 781 -650
211 -284 343 -602 391 -945 17 -121 17 -446 0 -570 -59 -425 -258 -832 -567
-1159 -157 -167 -366 -317 -607 -436 -167 -82 -221 -124 -281 -217 -73 -116
-102 -266 -77 -391 50 -237 271 -416 516 -417 103 0 172 21 340 105 644 321
1148 840 1457 1500 128 275 208 551 255 880 28 201 25 677 -6 875 -73 472
-227 871 -486 1260 -312 467 -727 835 -1222 1084 -151 75 -224 96 -337 95 -50
0 -111 -6 -136 -13z"/>
</g>
</svg>
